<?xml version="1.0" encoding="UTF-8"?>
<svg width="256" height="256" viewBox="0 0 256 256" version="1.1" xmlns="http://www.w3.org/2000/svg">
  <rect width="256" height="256" rx="64" fill="#d9282f" />
  <g transform="translate(25.6, 25.6) scale(0.8)" fill="none">
    <path d="M70 32 H176 Q182 32 186 36 L200 50 Q204 54 204 60 V206 C204 216 196 224 186 224 H70 C60 224 52 216 52 206 V50 C52 40 60 32 70 32 Z" stroke="white" stroke-width="14" stroke-linejoin="round"></path><path d="M176 40 V54 Q176 60 182 60 H196" stroke="white" stroke-width="14" stroke-linecap="round" stroke-linejoin="round"></path><line x1="92" y1="40" x2="92" y2="216" stroke="white" stroke-width="14" stroke-linecap="round"></line><line x1="118" y1="88" x2="176" y2="88" stroke="white" stroke-width="14" stroke-linecap="round"></line><line x1="118" y1="128" x2="160" y2="128" stroke="white" stroke-width="14" stroke-linecap="round"></line><line x1="118" y1="168" x2="176" y2="168" stroke="white" stroke-width="14" stroke-linecap="round"></line>
  </g>
</svg>