<svg width="256" height="256" viewBox="0 0 256 256" fill="none" xmlns="http://www.w3.org/2000/svg">
  <!-- Notebook body -->
  <path d="
    M70 32
    H176
    Q182 32 186 36
    L200 50
    Q204 54 204 60
    V206
    C204 216 196 224 186 224
    H70
    C60 224 52 216 52 206
    V50
    C52 40 60 32 70 32
    Z"
    stroke="currentColor"
    stroke-width="14"
    stroke-linejoin="round"/>

  <!-- Fold corner -->
  <path d="
    M176 32
    V54
    Q176 60 182 60
    H204"
    stroke="currentColor"
    stroke-width="14"
    stroke-linecap="round"
    stroke-linejoin="round"/>

  <!-- Spine -->
  <line x1="92" y1="32" x2="92" y2="224"
        stroke="currentColor"
        stroke-width="14"
        stroke-linecap="round"/>

  <!-- Stylized E / page lines -->
  <line x1="118" y1="88" x2="176" y2="88"
        stroke="currentColor"
        stroke-width="14"
        stroke-linecap="round"/>

  <line x1="118" y1="128" x2="160" y2="128"
        stroke="currentColor"
        stroke-width="14"
        stroke-linecap="round"/>

  <line x1="118" y1="168" x2="176" y2="168"
        stroke="currentColor"
        stroke-width="14"
        stroke-linecap="round"/>
</svg>